<svg width="32" height="33" viewBox="0 0 32 33" fill="none" xmlns="http://www.w3.org/2000/svg">
<path d="M24.4113 10.9268C23.1096 8.34608 23.0711 5.25885 24.3083 2.64306L25.2819 0.585684C25.194 0.582329 25.1081 0.572266 25.0195 0.572266C21.462 0.572266 18.5781 3.62053 18.5781 7.38074V11.9197C18.5796 15.5581 21.2897 18.5514 24.7285 18.7127C25.7435 16.2004 25.6269 13.3374 24.4113 10.9268V10.9268Z" fill="#523434"/>
<path d="M27.2385 0.995117L26.4578 2.64427C25.2208 5.26032 25.2593 8.34755 26.561 10.928C27.7233 13.2344 27.8822 15.9603 26.9968 18.4004C29.6588 17.4944 31.4636 14.8763 31.4638 11.9204V7.38143C31.4621 4.52644 29.7747 1.9762 27.2385 0.995117Z" fill="#523434"/>
<path d="M11.6364 25.2813C12.317 22.9829 14.0385 21.166 16.2554 20.4061L18 19.8081C17.9499 19.7515 17.9044 19.6949 17.8516 19.6383C15.7263 17.4539 12.2812 17.4539 10.1561 19.6383L7.59084 22.2766C5.53539 24.3912 5.46255 27.7945 7.42589 30C9.45181 29.1637 11.0002 27.4286 11.6364 25.2813V25.2813Z" fill="#92543E"/>
<path d="M20.4688 22L19.0024 22.4976C16.6766 23.2878 14.8705 25.177 14.1566 27.5668C13.5178 29.7021 12.0012 31.4501 10 32.3583C12.2039 33.5107 14.886 33.083 16.6391 31.2997L19.3298 28.5579C21.0228 26.8324 21.4778 24.2129 20.4688 22V22Z" fill="#92543E"/>
<path d="M7.78891 7.49269C10.1481 6.56251 12.8134 6.82848 14.9404 8.20649L16.6133 9.29026C16.626 9.21119 16.6436 9.13212 16.6525 9.05424C17.0201 5.82522 14.6903 2.91058 11.4485 2.54397L7.5344 2.10188C4.39778 1.74989 1.53779 3.91791 1.04297 7.02329C3.1043 8.189 5.58469 8.36152 7.78891 7.49269V7.49269Z" fill="#A55F40"/>
<path d="M8.08673 3.47543L11.8416 3.89324C13.3417 4.05796 14.7121 4.80522 15.6475 5.96824C14.8702 4.07314 13.0975 2.7488 11.0297 2.51837L7.27483 2.10033C4.26379 1.765 1.51746 3.81598 1.04297 6.75446C1.37922 6.93754 1.72932 7.09501 2.09027 7.22574C2.93909 4.74449 5.43733 3.18201 8.08673 3.47543Z" fill="#92543E"/>
<path d="M15.779 12.0607L14.4175 11.1261C12.2589 9.64205 9.55375 9.35588 7.15983 10.3586C5.02004 11.2528 2.61831 11.1224 0.576172 10.001C1.09031 12.6975 3.19103 14.7358 5.7766 15.0468L9.74881 15.5229C12.2467 15.8201 14.6548 14.4375 15.779 12.0607Z" fill="#A55F40"/>
<path d="M24.8576 0.849938C24.9797 0.564525 24.8803 0.217933 24.6357 0.0753575C24.5728 0.0388603 24.5041 0.0183799 24.4341 0.0149665L24.3534 0.00918996C24.2935 0.00525139 24.234 0 24.173 0C20.6188 0.00472625 17.7384 3.3622 17.7344 7.50529V12.1239C17.7299 16.1381 20.4422 19.4417 23.8829 19.6129H23.9045C24.1032 19.6129 24.2825 19.4748 24.3602 19.2618C25.361 16.5458 25.2464 13.4465 24.0487 10.841C22.9248 8.38017 22.8917 5.43756 23.9597 2.94314L24.8576 0.849938ZM23.0735 2.43008C21.8616 5.25875 21.8985 8.59627 23.1726 11.3876C24.1703 13.5583 24.3178 16.1247 23.5776 18.4311C20.8139 18.0855 18.7199 15.3637 18.7249 12.1239V7.50529C18.728 4.25599 20.8324 1.53209 23.6044 1.18944L23.0735 2.43008Z" fill="#232C38"/>
<path d="M27.4224 0.458826C27.1656 0.358963 26.879 0.479211 26.7569 0.738029L25.9769 2.38796C24.6635 5.16786 24.7035 8.44785 26.0843 11.1911C27.1741 13.3527 27.3233 15.9076 26.4927 18.1944C26.387 18.487 26.5257 18.815 26.8025 18.9267C26.8638 18.9515 26.9288 18.9641 26.9942 18.9641C27.0501 18.9644 27.1058 18.9551 27.159 18.937C30.0482 17.9619 32.0071 15.1206 31.9995 11.9147V7.37568C31.9893 4.28612 30.1644 1.52842 27.4224 0.458826V0.458826ZM30.9259 11.9147C30.931 14.1996 29.7499 16.3035 27.8503 17.3937C28.3659 15.1172 28.0757 12.72 27.0337 10.6546C25.8158 8.23599 25.7799 5.34436 26.9371 2.89295L27.4937 1.7155C29.5802 2.73812 30.9183 4.94465 30.9259 7.37568V11.9147Z" fill="#232C38"/>
<path d="M18.7916 19.0593C18.7523 19.0127 18.713 18.9668 18.6689 18.9216C16.1674 16.3595 12.1171 16.3595 9.61562 18.9216L6.87565 21.7339C4.45198 24.2147 4.36642 28.216 6.68154 30.8036C6.84704 30.9894 7.10719 31.0503 7.33472 30.9564C9.66829 30.0015 11.4511 28.008 12.1781 25.5401C12.8518 23.2774 14.5499 21.4883 16.7366 20.7384L18.5978 20.0998C18.9058 19.9947 19.0724 19.6531 18.9697 19.3367C18.9435 19.2555 18.9002 19.1806 18.8435 19.1177L18.7916 19.0593ZM16.3626 19.593C13.8151 20.4672 11.8366 22.5521 11.0524 25.1891C10.4715 27.162 9.1012 28.789 7.28312 29.6646C5.66101 27.5339 5.84442 24.4957 7.71037 22.5867L10.4503 19.7747C12.2914 17.8895 15.2022 17.6782 17.2834 19.2788L16.3626 19.593Z" fill="#232C38"/>
<path d="M13.4734 27.4045C12.842 29.1859 11.343 30.6442 9.36431 31.4022C9.05327 31.5225 8.91446 31.8371 9.05467 32.1045C9.11199 32.214 9.21034 32.3034 9.33397 32.3582C11.9311 33.5102 15.0963 33.0833 17.1587 31.3034L20.0383 28.8271C22.0248 27.1083 22.5598 24.5091 21.3802 22.3086C21.2482 22.0629 20.9225 21.9418 20.6241 22.0273L19.054 22.4774C16.3765 23.247 14.2975 25.0827 13.4734 27.4045V27.4045ZM20.4645 23.1933C21.1495 24.9005 20.6463 26.794 19.1672 28.076L16.2874 30.5522C14.9311 31.724 12.9586 32.1975 11.0924 31.7989C12.8016 30.839 14.0635 29.393 14.6577 27.7138C15.3652 25.721 17.1498 24.1457 19.4476 23.4852L20.4645 23.1933Z" fill="#232C38"/>
<path d="M0.270615 7.25237C2.4672 8.34298 5.11507 8.50419 7.46473 7.69C9.66252 6.93497 12.1443 7.15117 14.1263 8.27064L15.7981 9.21635C16.043 9.35435 16.37 9.29351 16.5286 9.08044C16.5692 9.02608 16.5962 8.96503 16.6074 8.90084L16.6211 8.8333C16.6317 8.78124 16.6423 8.7298 16.6493 8.6769C17.0496 5.60684 14.5142 2.83556 10.9859 2.48722C10.9861 2.48722 10.9856 2.48701 10.9859 2.48722L7.0752 2.10145C3.65837 1.75958 0.539752 3.82372 0.00628447 6.78025C-0.0275979 6.9701 0.0776538 7.15849 0.270615 7.25237ZM6.95698 3.01621L10.8669 3.40198C13.5734 3.66962 15.622 5.65702 15.6342 8.02747L14.7016 7.50014C12.4325 6.21842 9.59091 5.97107 7.07472 6.83566C5.14487 7.50412 2.97808 7.42048 1.12392 6.60587C1.73356 4.29124 4.24567 2.74523 6.95698 3.01621Z" fill="#232C38"/>
<path d="M5.71622 15.6043L9.68819 16.0804C12.4102 16.4058 15.0346 14.8998 16.2596 12.3101C16.3822 12.0518 16.3014 11.7375 16.0721 11.5799L14.7109 10.6444C12.4058 9.06264 9.51925 8.75711 6.96298 9.82438C4.96772 10.6592 2.72784 10.5374 0.823885 9.49099C0.560959 9.34597 0.237 9.45383 0.0998 9.73174C0.0434063 9.84632 0.025585 9.97792 0.0492654 10.1049C0.602705 13.0473 2.89531 15.2722 5.71622 15.6043V15.6043ZM7.35969 10.8798C9.59127 9.94876 12.1107 10.2156 14.123 11.5959L15.0646 12.2428C13.9534 14.144 11.9056 15.1989 9.80415 14.953L5.83218 14.4764C3.87769 14.2447 2.19369 12.916 1.42786 11.0013C3.35428 11.7182 5.46086 11.6748 7.35969 10.8798Z" fill="#232C38"/>
</svg>
