<svg width="30" height="30" viewBox="0 0 30 30" fill="none" xmlns="http://www.w3.org/2000/svg">
<g clip-path="url(#clip0)">
<path d="M16.269 15.2541H13.7266V14.237H15.7606V13.22H13.7266V12.2031H16.269C16.5498 12.2031 16.7776 12.4309 16.7776 12.7117V14.7455C16.7776 15.0264 16.5498 15.2541 16.269 15.2541Z" fill="#523434"/>
<path d="M18.5486 15.6902L16.0062 14.1647C15.7657 14.02 15.6879 13.7076 15.8325 13.4668C15.8753 13.3956 15.935 13.3359 16.0062 13.2931L18.5486 11.7676L19.0723 12.6392L17.2561 13.7289L19.0723 14.8186L18.5486 15.6902Z" fill="#523434"/>
<path d="M15.252 1.01709H22.3706V3.05093H15.252V1.01709Z" fill="#ABC8BC"/>
<path d="M16.7784 22.3733C16.7809 18.4415 13.5958 15.2525 9.66428 15.25C5.73277 15.2475 2.54353 18.4326 2.54102 22.3641C2.53987 24.2284 3.27001 26.0189 4.57486 27.3505V29.4917H14.7443V27.3505C16.0494 26.0228 16.78 24.235 16.7784 22.3733Z" fill="#EEF1EB"/>
<path d="M9.91336 23.644C8.36932 22.0995 5.86536 22.0993 4.32086 23.6433C4.32063 23.6436 4.3204 23.6438 4.31995 23.644L3.02539 24.9388C3.37329 25.8392 3.90018 26.6595 4.57423 27.3503V29.4915H14.7437V27.3503C16.0488 26.0226 16.7794 24.2348 16.7778 22.373L15.5065 23.6443C13.9625 25.1887 11.4585 25.189 9.91404 23.6449C9.91382 23.6447 9.91359 23.6445 9.91336 23.644Z" fill="#92543E"/>
<path d="M4.57422 27.4575H14.7439V29.4914H4.57422V27.4575Z" fill="#ABC8BC"/>
<path d="M9.15039 18.3052H10.1675V19.3221H9.15039V18.3052Z" fill="#92543E"/>
<path d="M9.15039 20.3389H10.1675V21.3558H9.15039V20.3389Z" fill="#92543E"/>
<path d="M13.2183 10.6782H6.09959L3.04883 0.508789H16.269L13.2183 10.6782Z" fill="#EEF1EB"/>
<path d="M14.2365 2.54237L10.7113 5.70186C10.1118 6.2347 9.20865 6.2347 8.60921 5.70186L5.08397 2.54237H3.05013C2.48845 2.54237 2.0332 2.0869 2.0332 1.52545C2.0332 0.963776 2.48845 0.508301 3.05013 0.508301H16.2703C16.832 0.508301 17.2873 0.963776 17.2873 1.52545C17.2873 2.0869 16.832 2.54237 16.2703 2.54237H14.2365Z" fill="#D2B894"/>
<path d="M21.8633 0.508789H26.4395C27.2821 0.508789 27.965 1.19154 27.965 2.03406C27.965 2.87657 27.2821 3.55956 26.4395 3.55956H21.8633V0.508789Z" fill="#523434"/>
<path d="M15.2528 16.7793H4.06641L4.62877 15.6552C4.92769 15.0569 5.08333 14.3973 5.08333 13.7285C5.08333 13.0597 4.92769 12.4001 4.62877 11.8018L4.06641 10.6777H15.2528L14.6904 11.8018C14.3915 12.4001 14.2359 13.0597 14.2359 13.7285C14.2359 14.3973 14.3915 15.0569 14.6904 15.6552L15.2528 16.7793Z" fill="#A97B56"/>
<path d="M14.2357 13.7286C14.2359 13.5587 14.246 13.3889 14.2661 13.2202H5.05273C5.09325 13.5578 5.09325 13.8993 5.05273 14.2371H14.2661C14.246 14.0682 14.2359 13.8984 14.2357 13.7286Z" fill="#523434"/>
<path d="M3.04893 3.05077H3.28079L5.41626 10.1694H4.06586C3.78502 10.1694 3.55728 10.397 3.55705 10.6778C3.55705 10.7568 3.57536 10.8346 3.61084 10.9053L4.1732 12.0296C4.7081 13.0994 4.7081 14.3584 4.1732 15.4282L3.61084 16.5525C3.48495 16.8002 3.58383 17.1027 3.83148 17.2284C3.88321 17.2547 3.93906 17.2719 3.99673 17.279C1.35063 20.2032 1.38084 24.6655 4.06586 27.5537V29.4914C4.06586 29.7723 4.29337 30 4.5742 30H14.7437C15.0245 30 15.2522 29.7723 15.2522 29.4914V27.5537C17.9372 24.6655 17.9675 20.2034 15.3218 17.279C15.5974 17.2442 15.7926 16.9926 15.7578 16.7171C15.7505 16.6596 15.7336 16.604 15.7072 16.5525L15.1449 15.4282C15.117 15.3717 15.0941 15.3122 15.0703 15.2543H16.2691C16.55 15.2543 16.7777 15.0266 16.7777 14.7457V14.6267L18.5497 15.6901L19.0734 14.8185L17.2572 13.7288L19.0734 12.6393L18.5497 11.7677L16.7777 12.8309V12.7119C16.7777 12.431 16.55 12.2035 16.2691 12.2035H15.0707C15.0957 12.1454 15.117 12.0861 15.1449 12.0296L15.7098 10.9053C15.8354 10.654 15.7336 10.3487 15.4823 10.2232C15.4108 10.1875 15.3321 10.1692 15.2522 10.1697H13.9018L15.8849 3.55934H21.354C21.354 3.84018 21.5815 4.06792 21.8623 4.06792H26.4386C27.562 4.06792 28.4727 3.1572 28.4727 2.03407C28.4727 0.910721 27.562 0 26.4386 0H21.8623C21.5815 0 21.354 0.227737 21.354 0.508576H17.398C17.1112 0.18631 16.7006 0.00137329 16.2691 0H3.04893C2.20642 0 1.52344 0.682983 1.52344 1.5255C1.52344 2.36801 2.20642 3.05077 3.04893 3.05077ZM5.56114 14.2374H13.7567C13.8171 14.8098 13.9792 15.3671 14.2353 15.8828L14.4296 16.2712H4.88846L5.08278 15.8828C5.3389 15.3671 5.50095 14.8098 5.56114 14.2374ZM5.4467 17.2881H13.8712C15.336 18.4946 16.2067 20.2764 16.2579 22.1736L15.1469 23.2846C13.8009 24.6304 11.6187 24.6304 10.2727 23.2846C8.52974 21.5414 5.70351 21.5414 3.96057 23.2846L3.25584 23.9893C2.61978 21.5195 3.47466 18.9052 5.4467 17.2881ZM14.3802 26.9943C14.2873 27.0895 14.2351 27.2173 14.2353 27.3502V28.9831H5.08278V27.9662H12.7098V26.949H4.89716C4.36729 26.3969 3.93723 25.7572 3.62595 25.0582L4.68063 24.0035C6.02669 22.6577 8.20885 22.6577 9.5549 24.0035C11.2978 25.7467 14.1238 25.7467 15.867 24.0035L16.1213 23.7492C15.862 24.9749 15.2579 26.1008 14.3802 26.9943ZM15.7608 13.2202V14.2374H14.7819C14.7311 13.9002 14.7311 13.5574 14.7819 13.2202H15.7608ZM14.2353 11.575C13.9792 12.0905 13.8171 12.6478 13.7567 13.2204H5.56114C5.50095 12.6478 5.3389 12.0905 5.08278 11.575L4.88846 11.1864H14.4294L14.2353 11.575ZM6.47804 10.1694L4.34235 3.05077H4.888L8.27087 6.08231C9.06281 6.78658 10.2567 6.78658 11.0486 6.08231L14.4301 3.05077H14.9755L12.84 10.1694H6.47804ZM26.4386 1.01692C27.0003 1.01692 27.4557 1.4724 27.4557 2.03384C27.4557 2.59552 27.0003 3.05077 26.4386 3.05077H22.3709V1.01692H26.4386ZM21.354 1.5255V2.54242H17.398C17.6518 2.26456 17.7933 1.90201 17.7946 1.5255H21.354ZM3.04893 1.01692H16.2691C16.55 1.01692 16.7777 1.24466 16.7777 1.5255C16.7777 1.80634 16.55 2.03384 16.2691 2.03384H14.2353C14.1101 2.03384 13.9895 2.08008 13.8961 2.16362L10.3709 5.32219C9.9646 5.68245 9.35349 5.68245 8.94722 5.32219L5.42198 2.16362C5.3286 2.08008 5.20798 2.03384 5.08278 2.03384H3.04893C2.7681 2.03384 2.54036 1.80634 2.54036 1.5255C2.54036 1.24466 2.7681 1.01692 3.04893 1.01692Z" fill="black"/>
<path d="M9.15039 18.3052H10.1675V19.3221H9.15039V18.3052Z" fill="black"/>
<path d="M9.15039 20.3389H10.1675V21.3558H9.15039V20.3389Z" fill="black"/>
</g>
<defs>
<clipPath id="clip0">
<rect width="30" height="30" fill="white"/>
</clipPath>
</defs>
</svg>
