<svg width="31" height="35" viewBox="0 0 31 35" fill="none" xmlns="http://www.w3.org/2000/svg">
<path d="M12.5348 5.40555L11.8906 0.583008H15.1633L14.5191 5.40555" fill="#333333"/>
<path d="M8.07227 21.1934H18.9815V24.4519H8.07227V21.1934Z" fill="#ABC8BC"/>
<path d="M17.3438 21.1934H18.4349V24.4519H17.3438V21.1934Z" fill="#EEF1EB"/>
<path d="M5.34375 6.99986V8.41324H21.7075V6.99986C16.6715 3.76828 10.3798 3.76828 5.34375 6.99986V6.99986Z" fill="#ABC8BC"/>
<path d="M22.2535 34.4166H4.79883L6.43531 23.9165H20.6173L22.2535 34.4166Z" fill="#EEF1EB"/>
<path d="M20.0706 23.9165H18.707L20.3433 34.4166H21.7071L20.0706 23.9165Z" fill="white"/>
<path d="M16.7993 34.4166H10.2539L10.7992 23.9165H16.2537L16.7993 34.4166Z" fill="#ABC8BC"/>
<path d="M6.98047 17.5H20.0715V21.5834H6.98047V17.5Z" fill="#EEF1EB"/>
<path d="M17.8887 17.5H18.9796V21.5834H17.8887V17.5Z" fill="white"/>
<path d="M21.7077 7H27.7078L29.8896 9.3333L27.1622 22.1667H22.7986V19.2502H24.4348L26.0713 11.0834L25.5257 10.5002H21.1621L21.7077 7Z" fill="#333333"/>
<path d="M2.07357 7L0.982422 8.16665L5.92706 14.6301L6.43718 18.0836H20.6192L22.2554 7H2.07357Z" fill="#EEF1EB"/>
<path d="M20.072 7L18.4355 18.0836H19.5267L21.1629 7H20.072Z" fill="white"/>
<path d="M16.2537 18.0836H10.7992L10.2539 7H16.7993L16.2537 18.0836Z" fill="#ABC8BC"/>
<path d="M27.7085 6.41669H21.8485C19.8275 5.1475 17.5758 4.3555 15.2447 4.09381L15.7029 0.666235C15.7456 0.347137 15.5386 0.0515364 15.2405 0.00587462C15.2147 0.0018692 15.1888 0 15.1628 0H11.8901C11.5887 0 11.3445 0.261154 11.3445 0.58319C11.3445 0.61096 11.3465 0.638731 11.35 0.666235L11.8082 4.09381C9.47708 4.3555 7.22537 5.1475 5.20387 6.41669H2.072C1.92718 6.41669 1.7886 6.4781 1.68622 6.58758L0.595324 7.75423C0.397319 7.96625 0.381339 8.30404 0.55862 8.53609L5.41012 14.8751L5.89651 18.1726C5.93771 18.457 6.16668 18.6666 6.4356 18.6666V21.5834C6.4356 21.9054 6.67979 22.1665 6.98092 22.1665H7.5265V23.3335H6.4356C6.16918 23.3335 5.94171 23.5393 5.89776 23.8205L4.26129 34.3203C4.2116 34.6381 4.4121 34.9388 4.70923 34.9919C4.73895 34.9972 4.76891 34.9999 4.79912 34.9999H22.2538C22.5549 34.9999 22.7991 34.7388 22.7991 34.4165C22.7991 34.3844 22.7966 34.3521 22.7916 34.3203L21.1551 23.8205C21.1112 23.5393 20.8837 23.3335 20.6173 23.3335H19.5264V22.1668H20.0717C20.3731 22.1668 20.6173 21.9057 20.6173 21.5834V18.6669C20.8857 18.6669 21.1144 18.4581 21.1561 18.1745L22.2028 11.0835H25.3005L25.4763 11.2713L23.9941 18.6669H22.7991C22.498 18.6669 22.2538 18.928 22.2538 19.2501V22.1668C22.2538 22.4888 22.498 22.75 22.7991 22.75H27.1627C27.4174 22.75 27.6381 22.5617 27.6945 22.2963L30.4219 9.46294C30.4636 9.26748 30.4082 9.06267 30.2758 8.92088L28.0938 6.58758C27.9917 6.4781 27.8531 6.41669 27.7085 6.41669V6.41669ZM12.5191 1.16665H14.5341L14.152 4.00996C13.7333 3.99314 13.3151 3.99314 12.8976 4.00996L12.5191 1.16665ZM19.4218 6.41669H7.63062C11.4034 4.73388 15.6489 4.73388 19.4218 6.41669ZM15.7361 17.5H11.3181L10.8272 7.58333H16.2227L15.7361 17.5ZM1.71569 8.20578L2.29772 7.58333H4.3327L5.07203 12.5941L1.71569 8.20578ZM5.43733 7.58333H9.73601L10.2269 17.5H6.90127L5.43733 7.58333ZM6.89753 24.4998H10.2249L9.74001 33.8333H5.44333L6.89753 24.4998ZM10.8304 33.8333L11.3153 24.4998H15.7378L16.2227 33.8333H10.8304ZM21.6096 33.8333H17.3154L16.8302 24.4998H20.1576L21.6096 33.8333ZM18.4355 23.3332H8.6174V22.1665H18.4355V23.3332ZM19.5266 20.9999H7.5265V18.6666H19.5266V20.9999ZM20.1511 17.5H16.8287L17.3169 7.58333H21.6151L20.1511 17.5ZM26.7265 21.5834H23.3447V19.8333H24.4356C24.693 19.8333 24.9155 19.641 24.9692 19.3718L26.6056 11.2053C26.6441 11.0117 26.5884 10.8106 26.4578 10.671L25.9122 10.0875C25.8101 9.97804 25.6713 9.91663 25.5267 9.91663H22.3754L22.7197 7.58333H27.4826L29.2903 9.51822L26.7265 21.5834Z" fill="black"/>
</svg>
