<svg width="12" height="17" viewBox="0 0 12 17" fill="none" xmlns="http://www.w3.org/2000/svg">
    <path fill-rule="evenodd" clip-rule="evenodd" d="M4.13315 15.123C4.12489 15.5072 4.03893 16.0386 3.34435 16.744C3.34435 16.744 5.33387 16.3324 5.3937 14.6409C5.43703 12.6919 2.30661 11.9584 2.26397 10.2607C2.16975 9.16366 4.91369 7.04686 4.82772 5.74022C4.83323 5.25125 4.30507 3.84736 2.39257 3.25293C2.39257 3.25293 3.61874 4.42672 3.61049 5.34233C3.53347 7.45228 5.41533e-05 8.17135 5.41533e-05 10.3443C-0.0171384 12.3919 4.06506 13.1945 4.13315 15.123Z" fill="#232C38"/>
    <path fill-rule="evenodd" clip-rule="evenodd" d="M7.33457 12.1514C8.31524 12.9657 9.24088 13.7334 9.27114 14.7579C9.26289 15.2222 9.16867 15.8022 8.53874 16.5836C8.46928 16.6699 8.46309 16.7904 8.52292 16.8829C8.57106 16.9569 8.65359 17 8.73886 17C8.76018 17 8.7815 16.9979 8.80282 16.9918C8.82414 16.9863 10.9808 16.4152 11.0454 14.1785C11.0702 12.826 10.148 11.9076 9.33372 11.0975C8.6137 10.3805 7.93425 9.70387 7.91499 8.80195C7.87579 8.24314 8.48716 7.3104 9.0779 6.40849C9.79036 5.31961 10.5283 4.19376 10.4794 3.29801C10.4863 2.55155 9.85913 0.768263 7.87855 0.0170094C7.7692 -0.024765 7.64542 0.0122156 7.57733 0.108091C7.50994 0.203967 7.51613 0.332714 7.59177 0.421741C7.60347 0.435438 8.75605 1.79756 8.74849 2.80151C8.71342 3.96845 7.89574 4.76833 7.03061 5.61614C6.10015 6.52628 5.13874 7.46791 5.13874 8.92111C5.12843 10.3209 6.25007 11.2509 7.33457 12.1514Z" fill="#232C38"/>
</svg>
