<svg width="24" height="24" viewBox="0 0 24 24" fill="none" xmlns="http://www.w3.org/2000/svg">
<path d="M6.01505 0.46875H2.63672V23.5312H6.01505" fill="#AE936C"/>
<path d="M19.2714 23.5312H5.51758V0.46875H19.2714C20.4261 0.46875 21.3622 1.40484 21.3622 2.55956V21.4404C21.3622 22.5952 20.4261 23.5312 19.2714 23.5312Z" fill="#D2B894"/>
<path d="M19.2713 0H5.51756H2.63672C2.37787 0 2.16797 0.209906 2.16797 0.46875V23.5312C2.16797 23.7901 2.37787 24 2.63672 24H5.51756H19.2713C20.6827 24 21.8309 22.8518 21.8309 21.4404V2.55956C21.8309 1.1482 20.6827 0 19.2713 0ZM20.8934 21.4404C20.8934 22.3348 20.1658 23.0625 19.2713 23.0625H5.98631V21.1564C5.98631 20.8976 5.77641 20.6877 5.51756 20.6877C5.25872 20.6877 5.04881 20.8976 5.04881 21.1564V23.0625H3.10547V0.9375H5.04881V17.4064C5.04881 17.6653 5.25872 17.8752 5.51756 17.8752C5.77641 17.8752 5.98631 17.6653 5.98631 17.4064V0.9375H19.2713C20.1658 0.9375 20.8934 1.66514 20.8934 2.55956V21.4404Z" fill="#232C38"/>
<path d="M16.6816 6.30957H10.1191C9.8603 6.30957 9.65039 6.51948 9.65039 6.77832C9.65039 7.03716 9.8603 7.24707 10.1191 7.24707H16.6816C16.9405 7.24707 17.1504 7.03716 17.1504 6.77832C17.1504 6.51948 16.9405 6.30957 16.6816 6.30957Z" fill="#232C38"/>
<path d="M16.6816 8.18457H10.1191C9.8603 8.18457 9.65039 8.39448 9.65039 8.65332C9.65039 8.91216 9.8603 9.12207 10.1191 9.12207H16.6816C16.9405 9.12207 17.1504 8.91216 17.1504 8.65332C17.1504 8.39448 16.9405 8.18457 16.6816 8.18457Z" fill="#232C38"/>
<path d="M16.6807 4.43457H15.8457C15.5869 4.43457 15.377 4.64448 15.377 4.90332C15.377 5.16216 15.5869 5.37207 15.8457 5.37207H16.6807C16.9395 5.37207 17.1494 5.16216 17.1494 4.90332C17.1494 4.64448 16.9396 4.43457 16.6807 4.43457Z" fill="#232C38"/>
<path d="M10.1191 5.37207H12.0967C12.3555 5.37207 12.5654 5.16216 12.5654 4.90332C12.5654 4.64448 12.3555 4.43457 12.0967 4.43457H10.1191C9.8603 4.43457 9.65039 4.64448 9.65039 4.90332C9.65039 5.16216 9.8603 5.37207 10.1191 5.37207Z" fill="#232C38"/>
<path d="M13.5812 5.17733C13.598 5.20316 13.6177 5.22707 13.6393 5.24863C13.6609 5.27019 13.6848 5.28988 13.7105 5.30676C13.7359 5.32358 13.763 5.33816 13.7916 5.34988C13.8198 5.3616 13.8493 5.37046 13.8793 5.37655C13.9093 5.38269 13.9402 5.38593 13.9707 5.38593C14.0016 5.38593 14.0321 5.38269 14.0625 5.37655C14.0921 5.37046 14.1216 5.3616 14.1502 5.34988C14.1784 5.33816 14.2055 5.32358 14.2308 5.30676C14.2566 5.28988 14.2805 5.27019 14.3021 5.24863C14.3241 5.22707 14.3434 5.20316 14.3607 5.17733C14.3776 5.15202 14.3921 5.12488 14.4038 5.09629C14.4155 5.06812 14.4245 5.03863 14.4305 5.00863C14.4366 4.97863 14.4394 4.94769 14.4394 4.91723C14.4394 4.8868 14.4366 4.85582 14.4305 4.82582C14.4245 4.79582 14.4155 4.76629 14.4038 4.73769C14.3921 4.70957 14.3776 4.68238 14.3607 4.65707C14.3434 4.63129 14.3241 4.60738 14.3021 4.58582C14.2805 4.56421 14.2566 4.54452 14.2308 4.52723C14.2055 4.51035 14.1784 4.49577 14.1502 4.48405C14.1216 4.47234 14.0921 4.46348 14.0625 4.45738C14.0021 4.4452 13.9397 4.4452 13.8793 4.45738C13.8493 4.46348 13.8197 4.47234 13.7916 4.48405C13.763 4.49577 13.7359 4.51035 13.7105 4.52723C13.6848 4.54452 13.6609 4.56421 13.6393 4.58582C13.6177 4.60738 13.598 4.63129 13.5812 4.65707C13.5643 4.68238 13.5498 4.70957 13.538 4.73769C13.5263 4.76629 13.5174 4.79582 13.5113 4.82582C13.5052 4.85587 13.502 4.8868 13.502 4.91723C13.502 4.94769 13.5052 4.97868 13.5113 5.00863C13.5174 5.03858 13.5263 5.06816 13.538 5.09629C13.5498 5.12488 13.5643 5.15202 13.5812 5.17733Z" fill="#232C38"/>
<path d="M5.94284 19.101C5.93112 19.0724 5.91655 19.0452 5.89967 19.0199C5.88237 18.9941 5.86316 18.9702 5.84159 18.9486C5.81952 18.9271 5.79566 18.9073 5.7703 18.8905C5.74452 18.8736 5.71733 18.8591 5.68925 18.8474C5.66108 18.8357 5.63159 18.8268 5.60159 18.8207C5.54112 18.8085 5.47878 18.8085 5.41831 18.8207C5.38831 18.8268 5.35873 18.8357 5.33066 18.8474C5.30258 18.8591 5.27534 18.8736 5.24961 18.8905C5.2243 18.9073 5.20034 18.9271 5.17831 18.9486C5.15675 18.9702 5.13706 18.9941 5.12019 19.0199C5.10336 19.0452 5.08878 19.0724 5.07706 19.101C5.06534 19.1291 5.05648 19.1586 5.05039 19.1886C5.04425 19.2186 5.04102 19.2496 5.04102 19.28C5.04102 19.4033 5.09113 19.5242 5.17836 19.6114C5.20039 19.633 5.2243 19.6526 5.24966 19.6695C5.27544 19.6863 5.30262 19.7009 5.3307 19.7126C5.35878 19.7244 5.38836 19.7337 5.41836 19.7393C5.44836 19.7455 5.4793 19.7487 5.50977 19.7487C5.5407 19.7487 5.57117 19.7455 5.60164 19.7393C5.63164 19.7337 5.66117 19.7244 5.6893 19.7126C5.71742 19.7009 5.74461 19.6863 5.77034 19.6695C5.79566 19.6526 5.81956 19.633 5.84164 19.6114C5.92878 19.5242 5.97898 19.4033 5.97898 19.28C5.97898 19.2496 5.9757 19.2186 5.96961 19.1886C5.96347 19.1586 5.95456 19.1291 5.94284 19.101Z" fill="#232C38"/>
</svg>
