<svg width="30" height="30" viewBox="0 0 30 30" fill="none" xmlns="http://www.w3.org/2000/svg">
<g clip-path="url(#clip0)">
<path d="M28.5938 12.6562H25.7812V10.7812C26.2969 10.7812 26.7188 10.3594 26.7188 9.84375C26.7188 9.32812 26.2969 8.90625 25.7812 8.90625H25.3125C25.3125 8.90625 21.5203 6.80484 15.9375 6.58453V5.625C16.4531 5.625 16.875 5.20312 16.875 4.6875C16.875 4.17188 16.4531 3.75 15.9375 3.75H14.0625C13.5469 3.75 13.125 4.17188 13.125 4.6875C13.125 5.20312 13.5469 5.625 14.0625 5.625V6.58453C8.47969 6.80484 4.6875 8.90625 4.6875 8.90625H4.21875C3.70312 8.90625 3.28125 9.32812 3.28125 9.84375C3.28125 10.3594 3.70312 10.7812 4.21875 10.7812V12.6562H1.40625C0.88875 12.6562 0.46875 13.0763 0.46875 13.5938V20.625C0.46875 22.9514 2.36156 24.8438 4.6875 24.8438H9.84375V26.25H11.7188V23.9062C11.7188 23.3888 11.2987 22.9688 10.7812 22.9688H19.2188C18.7013 22.9688 18.2812 23.3888 18.2812 23.9062V26.25H20.1562V24.8438H25.3125C27.6384 24.8438 29.5312 22.9514 29.5312 20.625V13.5938C29.5312 13.0763 29.1112 12.6562 28.5938 12.6562ZM4.6875 22.9688C3.39516 22.9688 2.34375 21.9173 2.34375 20.625V14.5312H4.67625L6.05953 20.2017C6.33609 21.7237 7.82812 22.9688 9.375 22.9688H4.6875ZM27.6562 20.625C27.6562 21.9173 26.6048 22.9688 25.3125 22.9688H20.625C22.1719 22.9688 23.6639 21.7237 23.9405 20.2017L25.3237 14.5312H27.6562V20.625Z" fill="#735E50"/>
<path d="M4.21875 10.7812V12.6562L6.05953 20.2017C6.33609 21.7238 7.82812 22.9688 9.375 22.9688H20.625C22.1719 22.9688 23.6639 21.7238 23.9405 20.2017L25.7812 12.6562V10.7812H4.21875Z" fill="#A89E92"/>
<path d="M10.3125 15V21.0938C10.3125 22.125 11.1562 22.9688 12.1875 22.9688H17.8125C18.8438 22.9688 19.6875 22.125 19.6875 21.0938V15H10.3125Z" fill="white"/>
<path d="M15 21.0938C15.7767 21.0938 16.4062 20.4642 16.4062 19.6875C16.4062 18.9108 15.7767 18.2812 15 18.2812C14.2233 18.2812 13.5938 18.9108 13.5938 19.6875C13.5938 20.4642 14.2233 21.0938 15 21.0938Z" fill="#A89E92"/>
<path d="M26.7188 9.84375C26.7188 10.3594 26.2969 10.7812 25.7812 10.7812H4.21875C3.70312 10.7812 3.28125 10.3594 3.28125 9.84375C3.28125 9.32812 3.70312 8.90625 4.21875 8.90625H25.7812C26.2969 8.90625 26.7188 9.32812 26.7188 9.84375Z" fill="white"/>
<path d="M15 6.5625C8.90625 6.5625 4.6875 8.90625 4.6875 8.90625H25.3125C25.3125 8.90625 21.0938 6.5625 15 6.5625Z" fill="#A89E92"/>
<path d="M15.9375 3.75H14.0625C13.5469 3.75 13.125 4.17188 13.125 4.6875C13.125 5.20312 13.5469 5.625 14.0625 5.625V6.5625H15.9375V5.625C16.4531 5.625 16.875 5.20312 16.875 4.6875C16.875 4.17188 16.4531 3.75 15.9375 3.75Z" fill="#735E50"/>
<path d="M28.5938 12.1875H26.25V11.1633C26.7947 10.9692 27.1875 10.4536 27.1875 9.84375C27.1875 9.06844 26.5566 8.4375 25.7812 8.4375H25.4292C24.7838 8.09906 21.3473 6.42187 16.4062 6.13875V6.01359C16.9519 5.82 17.3438 5.29875 17.3438 4.6875C17.3438 3.91219 16.7128 3.28125 15.9375 3.28125H14.0625C13.2872 3.28125 12.6562 3.91219 12.6562 4.6875C12.6562 5.29875 13.0481 5.82 13.5938 6.01359V6.13875C8.65266 6.42187 5.21625 8.09906 4.57078 8.4375H4.21875C3.44344 8.4375 2.8125 9.06844 2.8125 9.84375C2.8125 10.4541 3.20531 10.9692 3.75 11.1633V12.1875H1.40625C0.630937 12.1875 0 12.8184 0 13.5938V20.625C0 23.2097 2.10281 25.3125 4.6875 25.3125H9.375V26.25C9.375 26.5092 9.585 26.7188 9.84375 26.7188H11.7188C11.843 26.7188 11.9625 26.6695 12.0502 26.5814C12.1378 26.4933 12.1875 26.3747 12.1875 26.25V23.9062C12.1875 23.7408 12.1538 23.5847 12.1012 23.4375H12.1875H17.8125H17.8992C17.8467 23.5847 17.8125 23.7408 17.8125 23.9062V26.25C17.8125 26.3747 17.8617 26.4937 17.9498 26.5814C18.038 26.6691 18.157 26.7188 18.2812 26.7188H20.1562C20.415 26.7188 20.625 26.5092 20.625 26.25V25.3125H25.3125C27.8972 25.3125 30 23.2097 30 20.625V13.5938C30 12.8184 29.3691 12.1875 28.5938 12.1875ZM19.6875 14.5312H10.3125C10.0538 14.5312 9.84375 14.7408 9.84375 15V21.0938C9.84375 21.6234 10.027 22.1072 10.3242 22.5H9.375C8.0625 22.5 6.75562 21.4092 6.51469 20.0902L4.6875 12.6V11.25H25.3125V12.6L23.4792 20.1178C23.2444 21.4092 21.9375 22.5 20.625 22.5H19.6758C19.973 22.1072 20.1562 21.6234 20.1562 21.0938V15C20.1562 14.7408 19.9463 14.5312 19.6875 14.5312ZM5.59828 20.2852C5.75484 21.1477 6.25219 21.93 6.92812 22.5H4.6875C3.65344 22.5 2.8125 21.6591 2.8125 20.625V15H4.30828L5.59828 20.2852ZM24.3961 20.3128L25.6922 15H27.1875V20.625C27.1875 21.6591 26.3466 22.5 25.3125 22.5H23.0752C23.7488 21.9342 24.2423 21.1603 24.3961 20.3128ZM14.0625 5.15625C13.8042 5.15625 13.5938 4.94625 13.5938 4.6875C13.5938 4.42875 13.8042 4.21875 14.0625 4.21875H15.9375C16.1958 4.21875 16.4062 4.42875 16.4062 4.6875C16.4062 4.94625 16.1958 5.15625 15.9375 5.15625C15.6788 5.15625 15.4688 5.36578 15.4688 5.625V6.10453C15.3122 6.10172 15.1594 6.09375 15 6.09375C14.8406 6.09375 14.6878 6.10172 14.5312 6.10453V5.625C14.5312 5.36578 14.3212 5.15625 14.0625 5.15625ZM15 7.03125C18.42 7.03125 21.2475 7.79344 23.0316 8.4375H6.96844C8.7525 7.79344 11.58 7.03125 15 7.03125ZM4.21875 9.375H25.7812C26.0395 9.375 26.25 9.585 26.25 9.84375C26.25 10.1025 26.0395 10.3125 25.7812 10.3125H4.21875C3.96047 10.3125 3.75 10.1025 3.75 9.84375C3.75 9.585 3.96047 9.375 4.21875 9.375ZM11.25 23.9062V25.7812H10.3125V24.8438C10.3125 24.5845 10.1025 24.375 9.84375 24.375H4.6875C2.61984 24.375 0.9375 22.6927 0.9375 20.625V13.5938C0.9375 13.335 1.14797 13.125 1.40625 13.125H3.85031L4.07906 14.0625H2.34375C2.085 14.0625 1.875 14.272 1.875 14.5312V20.625C1.875 22.1761 3.13641 23.4375 4.6875 23.4375H9.375H10.7812C11.0395 23.4375 11.25 23.6475 11.25 23.9062ZM12.1875 22.5C11.4122 22.5 10.7812 21.8691 10.7812 21.0938V15.4688H19.2188V21.0938C19.2188 21.8691 18.5878 22.5 17.8125 22.5H12.1875ZM29.0625 20.625C29.0625 22.6927 27.3802 24.375 25.3125 24.375H20.1562C19.8975 24.375 19.6875 24.5845 19.6875 24.8438V25.7812H18.75V23.9062C18.75 23.6475 18.9605 23.4375 19.2188 23.4375H20.625H25.3125C26.8636 23.4375 28.125 22.1761 28.125 20.625V14.5312C28.125 14.272 27.915 14.0625 27.6562 14.0625H25.9209L26.1497 13.125H28.5938C28.852 13.125 29.0625 13.335 29.0625 13.5938V20.625Z" fill="black"/>
<path d="M15 17.8125C13.9659 17.8125 13.125 18.6534 13.125 19.6875C13.125 20.7216 13.9659 21.5625 15 21.5625C16.0341 21.5625 16.875 20.7216 16.875 19.6875C16.875 18.6534 16.0341 17.8125 15 17.8125ZM14.0625 19.6875C14.0625 19.3425 14.2523 19.043 14.5312 18.8803V20.4942C14.2523 20.332 14.0625 20.0325 14.0625 19.6875ZM15.4688 20.4947V18.8808C15.7477 19.0434 15.9375 19.3425 15.9375 19.688C15.9375 20.0334 15.7477 20.332 15.4688 20.4947Z" fill="#3F342F"/>
<path d="M11.8547 19.3547C11.7703 19.4433 11.7188 19.5656 11.7188 19.6875C11.7188 19.8094 11.7703 19.9312 11.8547 20.0203C11.9438 20.1047 12.0656 20.1562 12.1875 20.1562C12.3094 20.1562 12.4312 20.1047 12.5203 20.0203C12.6047 19.9312 12.6562 19.8094 12.6562 19.6875C12.6562 19.5656 12.6047 19.4433 12.5203 19.3547C12.3469 19.1813 12.0328 19.1813 11.8547 19.3547Z" fill="#3F342F"/>
<path d="M12.9891 17.0109C12.8156 16.8375 12.5016 16.8375 12.3234 17.0109C12.2391 17.0995 12.1875 17.2219 12.1875 17.3437C12.1875 17.4656 12.2391 17.5875 12.3234 17.6766C12.4125 17.7652 12.5344 17.8125 12.6562 17.8125C12.7781 17.8125 12.9 17.7609 12.9891 17.6766C13.0734 17.5875 13.125 17.4656 13.125 17.3437C13.125 17.2219 13.0734 17.0995 12.9891 17.0109Z" fill="#3F342F"/>
<path d="M15 17.3437C15.1266 17.3437 15.2437 17.2922 15.3328 17.2078C15.4172 17.1187 15.4688 16.9969 15.4688 16.875C15.4688 16.7531 15.4172 16.6308 15.3328 16.5422C15.1547 16.3688 14.8406 16.3688 14.6672 16.5422C14.5828 16.6308 14.5312 16.7531 14.5312 16.875C14.5312 16.9969 14.5828 17.1187 14.6672 17.2031C14.7563 17.2922 14.8734 17.3437 15 17.3437Z" fill="#3F342F"/>
<path d="M17.6766 17.6766C17.7609 17.5875 17.8125 17.4656 17.8125 17.3437C17.8125 17.2219 17.7609 17.0995 17.6766 17.0109C17.4984 16.8375 17.1844 16.8375 17.0109 17.0109C16.9266 17.0995 16.875 17.2219 16.875 17.3437C16.875 17.4656 16.9266 17.5875 17.0109 17.6766C17.1 17.7609 17.2219 17.8125 17.3438 17.8125C17.4656 17.8125 17.5875 17.7652 17.6766 17.6766Z" fill="#3F342F"/>
<path d="M18.1453 20.0203C18.2297 19.9312 18.2812 19.8141 18.2812 19.6875C18.2812 19.5605 18.2297 19.4433 18.1453 19.3547C17.9719 19.1813 17.6531 19.1813 17.4797 19.3547C17.3953 19.4433 17.3438 19.5656 17.3438 19.6875C17.3438 19.8094 17.3953 19.9312 17.4797 20.0203C17.5688 20.1047 17.6906 20.1562 17.8125 20.1562C17.9391 20.1562 18.0562 20.1047 18.1453 20.0203Z" fill="#3F342F"/>
</g>
<defs>
<clipPath id="clip0">
<rect width="30" height="30" fill="white"/>
</clipPath>
</defs>
</svg>
